<svg width="61" height="62" viewBox="0 0 61 62" fill="none" xmlns="http://www.w3.org/2000/svg">
<path d="M30.4878 61.4C47.3258 61.4 60.9756 47.7895 60.9756 31C60.9756 14.2106 47.3258 0.600006 30.4878 0.600006C13.6499 0.600006 0 14.2106 0 31C0 47.7895 13.6499 61.4 30.4878 61.4Z" fill="#143CE6"/>
<path d="M29.7341 12.3745C29.6061 12.3745 29.4832 12.4253 29.3927 12.5156C29.3021 12.6059 29.2512 12.7284 29.2512 12.8561V49.1634C29.2512 49.4297 29.4671 49.6449 29.7341 49.6449H33.2951C33.4232 49.6449 33.546 49.5942 33.6366 49.5039C33.7272 49.4136 33.7781 49.2911 33.7781 49.1634V12.8573C33.7781 12.7296 33.7272 12.6071 33.6366 12.5168C33.546 12.4265 33.4232 12.3758 33.2951 12.3758H29.7341V12.3745ZM21.2244 16.0055C21.0963 16.0055 20.9735 16.0563 20.8829 16.1466C20.7923 16.2369 20.7415 16.3593 20.7415 16.4871V45.5312C20.7415 45.7975 20.9585 46.0128 21.2244 46.0128H24.7854C24.9134 46.0128 25.0363 45.962 25.1269 45.8717C25.2174 45.7814 25.2683 45.6589 25.2683 45.5312V16.4871C25.2683 16.3593 25.2174 16.2369 25.1269 16.1466C25.0363 16.0563 24.9134 16.0055 24.7854 16.0055H21.2244ZM42.7744 23.8463H47.9793C48.2524 23.8463 48.4732 24.0664 48.4732 24.3388V27.8652C48.4732 27.9298 48.4604 27.9939 48.4356 28.0536C48.4108 28.1134 48.3744 28.1677 48.3285 28.2134C48.2827 28.2591 48.2282 28.2954 48.1683 28.3202C48.1084 28.3449 48.0441 28.3576 47.9793 28.3576H42.7744C42.6434 28.3576 42.5178 28.4095 42.4251 28.5019C42.3325 28.5942 42.2805 28.7195 42.2805 28.8501V33.1694C42.2805 33.4417 42.5012 33.6618 42.7744 33.6618H47.9793C48.2524 33.6618 48.4732 33.8831 48.4732 34.1543V37.6807C48.4732 37.8113 48.4211 37.9366 48.3285 38.029C48.2359 38.1213 48.1103 38.1732 47.9793 38.1732H42.7744C42.6434 38.1732 42.5178 38.2251 42.4251 38.3174C42.3325 38.4098 42.2805 38.5351 42.2805 38.6657V42.1787C42.2805 42.3093 42.2285 42.4346 42.1358 42.5269C42.0432 42.6193 41.9176 42.6712 41.7866 42.6712H38.25C38.119 42.6712 37.9934 42.6193 37.9008 42.5269C37.8081 42.4346 37.7561 42.3093 37.7561 42.1787V19.8408C37.7561 19.5696 37.9768 19.3483 38.25 19.3483H41.7866C42.0598 19.3483 42.2805 19.5696 42.2805 19.8408V23.3538C42.2805 23.6262 42.5012 23.8463 42.7744 23.8463ZM12.7354 23.608C12.6073 23.608 12.4845 23.6587 12.3939 23.749C12.3033 23.8393 12.2524 23.9618 12.2524 24.0895V37.93C12.2524 38.1963 12.4683 38.4115 12.7354 38.4115H16.2963C16.4244 38.4115 16.5473 38.3608 16.6378 38.2705C16.7284 38.1802 16.7793 38.0577 16.7793 37.93V24.0895C16.7793 23.9618 16.7284 23.8393 16.6378 23.749C16.5473 23.6587 16.4244 23.608 16.2963 23.608H12.7354Z" fill="white"/>
</svg>
